<svg width="34" height="34" viewBox="0 0 34 34" fill="none" xmlns="http://www.w3.org/2000/svg">
<g clip-path="url(#clip0_74_326)">
<path d="M7.854 1.96548C7.50676 1.86713 7.13323 1.96415 6.87803 2.21948L3.82502 5.27249C3.60077 5.49674 3.49671 5.81436 3.54479 6.12793C3.59287 6.44143 3.78737 6.71323 4.0686 6.85992L13.5584 11.8112L19.9696 5.39999L7.854 1.96548Z" fill="#121212"/>
<path d="M27.1399 29.9311C27.2866 30.2123 27.5584 30.4068 27.8719 30.4549C27.9224 30.4627 27.9728 30.4665 28.023 30.4665C28.2851 30.4665 28.5391 30.3629 28.7273 30.1747L31.7803 27.1217C32.0356 26.8664 32.1327 26.493 32.0343 26.1457L28.5998 14.03L22.1885 20.4413L27.1399 29.9311Z" fill="#121212"/>
<path d="M30.9626 0.0244058C28.8766 0.304838 26.9081 1.27888 25.4197 2.76723L10.6508 17.5362L3.88185 15.6619C3.53628 15.5662 3.16553 15.6638 2.91173 15.9176L0.29162 18.5375C0.0702225 18.7588 -0.0341675 19.0715 0.00972679 19.3815C0.0535547 19.6914 0.240686 19.9628 0.514743 20.114L9.13183 24.8679L13.8857 33.485C14.0369 33.7591 14.3082 33.9462 14.6182 33.99C14.6648 33.9967 14.7115 33.9998 14.7579 33.9998C15.0201 33.9998 15.2741 33.8962 15.4622 33.7081L18.0822 31.088C18.336 30.8343 18.4336 30.4637 18.3379 30.1179L16.4635 23.3489L31.2326 8.58C32.7209 7.09172 33.695 5.12318 33.9754 3.03724C34.0877 2.20205 33.8104 1.38121 33.2145 0.785351C32.6185 0.189424 31.7977 -0.0876209 30.9626 0.0244058Z" fill="#D70006"/>
</g>
<defs>
<clipPath id="clip0_74_326">
<rect width="34" height="34" fill="white"/>
</clipPath>
</defs>
</svg>
