<svg width="34" height="34" viewBox="0 0 34 34" fill="none" xmlns="http://www.w3.org/2000/svg">
<g clip-path="url(#clip0_74_319)">
<path d="M8.52518 18.0337H7.00043C6.60043 18.0337 6.23935 18.2718 6.08112 18.6386L1.86017 28.467L11.8844 23.3472C10.6844 21.6868 9.49715 19.8555 8.52518 18.0337Z" fill="#121212"/>
<path d="M27.9186 18.6386C27.7607 18.2718 27.3993 18.0337 26.9996 18.0337H25.4748C23.6393 21.4733 20.9652 25.0279 19.264 26.9835C18.0677 28.3557 15.9307 28.3542 14.7362 26.9835C14.614 26.8432 13.9762 26.1046 13.0976 24.969L11.2903 25.8925L18.1266 32.7154L31.0799 26.0001L27.9186 18.6386Z" fill="#121212"/>
<path d="M0.626965 31.3394L0.0817074 32.6091C-0.200519 33.2662 0.283001 34 1.00076 34H15.6799C15.7717 33.9318 15.7728 33.936 16.2656 33.6805L9.41931 26.8484L0.626965 31.3394Z" fill="#121212"/>
<path d="M33.9183 32.6092L31.8701 27.8398L19.9875 34.0001H32.9992C33.7154 34.0001 34.201 33.2675 33.9183 32.6092Z" fill="#121212"/>
<path d="M18 8.98643C18 8.43599 17.5512 7.98853 17 7.98853C16.4485 7.98853 16 8.43599 16 8.98643C16 9.53662 16.4485 9.98434 17 9.98434C17.5512 9.98434 18 9.53662 18 8.98643Z" fill="#D70006"/>
<path d="M17.7546 25.6074C18.0913 25.2209 25.9996 16.0729 25.9996 9.78457C25.9996 -3.18229 8.00043 -3.34052 8.00043 9.78457C8.00043 16.0729 15.9087 25.2209 16.2454 25.6074C16.6441 26.0647 17.3567 26.0642 17.7546 25.6074ZM14.0001 8.9864C14.0001 7.33558 15.3458 5.99267 17 5.99267C18.654 5.99267 19.9997 7.33558 19.9997 8.9864C19.9997 10.637 18.654 11.9799 17 11.9799C15.3458 11.9799 14.0001 10.637 14.0001 8.9864Z" fill="#D70006"/>
</g>
<defs>
<clipPath id="clip0_74_319">
<rect width="34" height="34" fill="white"/>
</clipPath>
</defs>
</svg>
