<svg width="34" height="34" viewBox="0 0 34 34" fill="none" xmlns="http://www.w3.org/2000/svg">
<g clip-path="url(#clip0_74_331)">
<path d="M34 23.0098C34 18.7907 31.5795 15.0252 27.9544 13.1936C27.8419 21.2832 21.2832 27.8419 13.1936 27.9545C15.0252 31.5796 18.7906 34 23.0098 34C24.9879 34 26.9117 33.4732 28.6019 32.4722L33.952 33.952L32.4721 28.6019C33.4732 26.9117 34 24.988 34 23.0098Z" fill="#121212"/>
<path d="M25.9648 12.9824C25.9648 5.82378 20.1411 0 12.9824 0C5.82378 0 0 5.82378 0 12.9824C0 15.3155 0.621002 17.587 1.80023 19.5813L0.0477295 25.9169L6.38356 24.1646C8.37782 25.3438 10.6494 25.9648 12.9824 25.9648C20.1411 25.9648 25.9648 20.1411 25.9648 12.9824ZM10.9902 9.96094H8.99805C8.99805 7.76383 10.7853 5.97656 12.9824 5.97656C15.1795 5.97656 16.9668 7.76383 16.9668 9.96094C16.9668 11.0761 16.4947 12.1479 15.6711 12.9012L13.9785 14.4504V16.0039H11.9863V13.5731L14.3261 11.4315C14.7443 11.0489 14.9746 10.5267 14.9746 9.96094C14.9746 8.86238 14.081 7.96875 12.9824 7.96875C11.8839 7.96875 10.9902 8.86238 10.9902 9.96094ZM11.9863 17.9961H13.9785V19.9883H11.9863V17.9961Z" fill="#D70006"/>
</g>
<defs>
<clipPath id="clip0_74_331">
<rect width="34" height="34" fill="white"/>
</clipPath>
</defs>
</svg>
