<svg width="40" height="40" viewBox="0 0 40 40" fill="none" xmlns="http://www.w3.org/2000/svg">
<path d="M20.0766 3.12551C19.6446 3.12238 19.2922 3.47004 19.2891 3.90129C19.286 4.33254 19.6328 4.68489 20.0649 4.68801C20.4961 4.69114 20.8485 4.34426 20.8516 3.91301C20.8547 3.48176 20.5078 3.12942 20.0766 3.12551Z" fill="#D70006"/>
<path d="M20.0411 7.81264C17.0246 7.79123 14.5542 10.2248 14.5314 13.2403C14.5087 16.2557 16.9435 18.7273 19.9591 18.75C19.9731 18.7501 19.987 18.7502 20.0009 18.7502C22.9973 18.7502 25.4461 16.3239 25.4688 13.3223C25.4915 10.3071 23.0567 7.83537 20.0411 7.81264ZM20.0008 17.1877C19.9909 17.1877 19.9806 17.1877 19.9708 17.1876C17.8168 17.1713 16.0776 15.4059 16.0938 13.252C16.11 11.1079 17.8591 9.37491 19.9994 9.37491C20.0092 9.37491 20.0195 9.37499 20.0294 9.37507C22.1834 9.39132 23.9226 11.1568 23.9063 13.3106C23.8901 15.4548 22.1411 17.1877 20.0008 17.1877Z" fill="#D70006"/>
<path d="M23.4087 3.71798C23.0023 3.57376 22.5555 3.78665 22.4113 4.19337C22.2672 4.60009 22.4801 5.04658 22.8867 5.1908C26.3279 6.41041 28.6212 9.68784 28.5937 13.3462C28.5905 13.7776 28.9376 14.13 29.3691 14.1333C29.3711 14.1333 29.3731 14.1333 29.3751 14.1333C29.8037 14.1333 30.153 13.7874 30.1562 13.3579C30.1887 9.03393 27.4771 5.15994 23.4087 3.71798Z" fill="#D70006"/>
<path d="M24.7936 29.4096C29.9899 22.7209 33.2374 19.233 33.2812 13.3811C33.3362 6.01837 27.361 0 19.9988 0C12.7226 0 6.77427 5.89282 6.71895 13.1819C6.67427 19.1925 9.98201 22.6756 15.2142 29.4085C10.0091 30.1863 6.71895 32.1408 6.71895 34.5313C6.71895 36.1327 8.19911 37.5696 10.8869 38.5774C13.3332 39.4948 16.5697 40 20.0001 40C23.4305 40 26.667 39.4948 29.1133 38.5774C31.801 37.5695 33.2812 36.1326 33.2812 34.5312C33.2812 32.142 29.9941 30.188 24.7936 29.4096ZM8.28138 13.1937C8.33013 6.76173 13.5782 1.5625 19.999 1.5625C26.4958 1.5625 31.7672 6.87408 31.7188 13.3695C31.6772 18.9268 28.2333 22.3516 22.7351 29.519C21.7544 30.7969 20.8537 32.005 20.0012 33.1868C19.1512 32.0043 18.2686 30.8178 17.2732 29.5186C11.5477 22.0511 8.23903 18.8851 8.28138 13.1937ZM20.0001 38.4376C13.293 38.4376 8.28138 36.3753 8.28138 34.5313C8.28138 33.1638 11.2773 31.4363 16.3147 30.8381C17.4282 32.2991 18.4044 33.6265 19.3619 34.9821C19.5082 35.1891 19.7459 35.3124 19.9994 35.3126C19.9996 35.3126 19.9998 35.3126 20.0001 35.3126C20.2534 35.3126 20.4909 35.1898 20.6374 34.9831C21.5859 33.6451 22.5888 32.2851 23.6928 30.839C28.7255 31.4378 31.7188 33.1648 31.7188 34.5314C31.7187 36.3753 26.7072 38.4376 20.0001 38.4376Z" fill="#D70006"/>
</svg>
