<svg width="24" height="24" viewBox="0 0 24 24" fill="none" xmlns="http://www.w3.org/2000/svg">
<path d="M12.046 1.87526C11.7868 1.87338 11.5754 2.08198 11.5735 2.34073C11.5716 2.59948 11.7797 2.81088 12.039 2.81276C12.2977 2.81463 12.5091 2.60651 12.511 2.34776C12.5129 2.08901 12.3048 1.8776 12.046 1.87526Z" fill="white"/>
<path d="M12.0247 4.68771C10.2148 4.67486 8.73253 6.13497 8.71884 7.94431C8.7052 9.75354 10.1661 11.2365 11.9754 11.2501C11.9838 11.2502 11.9922 11.2502 12.0006 11.2502C13.7984 11.2502 15.2677 9.79447 15.2813 7.99353C15.2949 6.18438 13.834 4.70135 12.0247 4.68771ZM12.0005 10.3128C11.9946 10.3128 11.9884 10.3127 11.9825 10.3127C10.6901 10.3029 9.64655 9.24364 9.6563 7.95134C9.666 6.66485 10.7154 5.62507 11.9996 5.62507C12.0055 5.62507 12.0117 5.62511 12.0176 5.62516C13.31 5.63491 14.3536 6.69419 14.3438 7.98649C14.3341 9.27298 13.2847 10.3128 12.0005 10.3128Z" fill="white"/>
<path d="M14.0452 2.23075C13.8013 2.14422 13.5333 2.27196 13.4467 2.51599C13.3602 2.76002 13.488 3.02791 13.732 3.11444C15.7967 3.84621 17.1727 5.81267 17.1562 8.00768C17.1543 8.26653 17.3625 8.47798 17.6214 8.47995C17.6226 8.47995 17.6238 8.47995 17.625 8.47995C17.8822 8.47995 18.0917 8.27239 18.0937 8.01472C18.1132 5.42032 16.4862 3.09593 14.0452 2.23075Z" fill="white"/>
<path d="M14.8762 17.6458C17.994 13.6325 19.9424 11.5398 19.9687 8.02867C20.0017 3.61102 16.4166 0 11.9993 0C7.63356 0 4.06458 3.53569 4.0314 7.90914C4.00458 11.5155 5.98923 13.6054 9.12855 17.6451C6.00549 18.1118 4.0314 19.2845 4.0314 20.7188C4.0314 21.6796 4.91949 22.5418 6.53214 23.1465C7.99994 23.6969 9.94183 24 12.0001 24C14.0583 24 16.0002 23.6969 17.468 23.1465C19.0806 22.5417 19.9687 21.6795 19.9687 20.7187C19.9687 19.2852 17.9965 18.1128 14.8762 17.6458ZM4.96885 7.91622C4.9981 4.05704 8.14694 0.937502 11.9994 0.937502C15.8975 0.937502 19.0603 4.12445 19.0313 8.02169C19.0063 11.3561 16.94 13.411 13.6411 17.7114C13.0526 18.4781 12.5123 19.203 12.0008 19.9121C11.4908 19.2026 10.9612 18.4907 10.3639 17.7111C6.92865 13.2306 4.94344 11.3311 4.96885 7.91622ZM12.0001 23.0625C7.97579 23.0625 4.96885 21.8252 4.96885 20.7188C4.96885 19.8983 6.76642 18.8618 9.78883 18.5029C10.4569 19.3795 11.0427 20.1759 11.6172 20.9893C11.7049 21.1135 11.8475 21.1874 11.9996 21.1875C11.9998 21.1875 11.9999 21.1875 12.0001 21.1875C12.152 21.1875 12.2946 21.1139 12.3825 20.9899C12.9515 20.1871 13.5533 19.371 14.2157 18.5034C17.2353 18.8627 19.0313 19.8989 19.0313 20.7188C19.0312 21.8252 16.0243 23.0625 12.0001 23.0625Z" fill="white"/>
</svg>
