<svg width="102" height="20" viewBox="0 0 102 20" fill="none" xmlns="http://www.w3.org/2000/svg">
<path d="M7.92 20H5.4C4.96 20 4.74 19.79 4.74 19.37V4.34C4.74 4.12 4.63 4.01 4.41 4.01H0.99C0.57 4.01 0.36 3.8 0.36 3.38V1.34C0.36 0.919999 0.57 0.71 0.99 0.71H12.33C12.75 0.71 12.96 0.919999 12.96 1.34V3.38C12.96 3.8 12.75 4.01 12.33 4.01H8.91C8.67 4.01 8.55 4.12 8.55 4.34V19.37C8.55 19.79 8.34 20 7.92 20ZM18.4308 20H15.8808C15.4608 20 15.2508 19.79 15.2508 19.37V1.34C15.2508 0.919999 15.4608 0.71 15.8808 0.71H23.0208C24.5808 0.71 25.8008 1.14 26.6808 2C27.5608 2.86 28.0008 4.07 28.0008 5.63V7.97C28.0008 10.23 27.1108 11.73 25.3308 12.47V12.59L28.5408 19.28C28.7208 19.76 28.5508 20 28.0308 20H25.6008C25.2408 20 24.9808 19.96 24.8208 19.88C24.6608 19.8 24.5308 19.63 24.4308 19.37L21.4308 12.89H19.4208C19.1808 12.89 19.0608 13 19.0608 13.22V19.37C19.0608 19.79 18.8508 20 18.4308 20ZM19.3908 9.83H22.3308C22.9708 9.83 23.4408 9.7 23.7408 9.44C24.0408 9.16 24.1908 8.72 24.1908 8.12V5.78C24.1908 5.16 24.0408 4.71 23.7408 4.43C23.4408 4.15 22.9708 4.01 22.3308 4.01H19.3908C19.1708 4.01 19.0608 4.12 19.0608 4.34V9.5C19.0608 9.72 19.1708 9.83 19.3908 9.83ZM33.667 20H30.787C30.427 20 30.307 19.79 30.427 19.37L35.167 1.34C35.307 0.919999 35.607 0.71 36.067 0.71H40.057C40.557 0.71 40.857 0.919999 40.957 1.34L45.697 19.37C45.817 19.79 45.697 20 45.337 20H42.457C42.237 20 42.087 19.96 42.007 19.88C41.927 19.78 41.867 19.61 41.827 19.37L40.987 16.07H35.137L34.297 19.37C34.257 19.61 34.187 19.78 34.087 19.88C34.007 19.96 33.867 20 33.667 20ZM38.017 4.34L35.857 13.01H40.297L38.137 4.34H38.017ZM51.4763 20H48.9863C48.5663 20 48.3563 19.79 48.3563 19.37V1.34C48.3563 0.919999 48.5663 0.71 48.9863 0.71H51.2363C51.6563 0.71 51.9363 0.85 52.0763 1.13L58.1363 12.5H58.2563V1.34C58.2563 0.919999 58.4663 0.71 58.8863 0.71H61.3763C61.7963 0.71 62.0063 0.919999 62.0063 1.34V19.37C62.0063 19.79 61.7963 20 61.3763 20H59.1863C58.7463 20 58.4263 19.8 58.2263 19.4L52.2263 8.24H52.1063V19.37C52.1063 19.79 51.8963 20 51.4763 20ZM65.4251 15.08V14.48C65.4251 14.06 65.6351 13.85 66.0551 13.85H68.6051C69.0251 13.85 69.2351 14.06 69.2351 14.48V14.72C69.2351 15.48 69.3851 16 69.6851 16.28C69.9851 16.56 70.5351 16.7 71.3351 16.7H72.7451C73.5251 16.7 74.0651 16.55 74.3651 16.25C74.6851 15.95 74.8451 15.39 74.8451 14.57V14.21C74.8451 13.63 74.6051 13.19 74.1251 12.89C73.6651 12.57 73.0851 12.38 72.3851 12.32C71.6851 12.26 70.9251 12.15 70.1051 11.99C69.3051 11.81 68.5551 11.59 67.8551 11.33C67.1551 11.05 66.5651 10.52 66.0851 9.74C65.6251 8.94 65.3951 7.92 65.3951 6.68V5.63C65.3951 4.07 65.8351 2.86 66.7151 2C67.5951 1.14 68.8151 0.71 70.3751 0.71H73.3751C74.9551 0.71 76.1851 1.14 77.0651 2C77.9451 2.86 78.3851 4.07 78.3851 5.63V6.2C78.3851 6.62 78.1751 6.83 77.7551 6.83H75.2051C74.7851 6.83 74.5751 6.62 74.5751 6.2V6.02C74.5751 5.24 74.4251 4.71 74.1251 4.43C73.8251 4.15 73.2751 4.01 72.4751 4.01H71.3051C70.4851 4.01 69.9251 4.17 69.6251 4.49C69.3451 4.79 69.2051 5.39 69.2051 6.29V6.86C69.2051 7.8 70.0251 8.34 71.6651 8.48C73.3651 8.62 74.8751 8.96 76.1951 9.5C76.8951 9.8 77.4751 10.34 77.9351 11.12C78.4151 11.88 78.6551 12.86 78.6551 14.06V15.08C78.6551 16.64 78.2151 17.85 77.3351 18.71C76.4551 19.57 75.2351 20 73.6751 20H70.4051C68.8451 20 67.6251 19.57 66.7451 18.71C65.8651 17.85 65.4251 16.64 65.4251 15.08ZM87.327 16.7H89.457C90.097 16.7 90.547 16.57 90.807 16.31C91.087 16.03 91.227 15.57 91.227 14.93V5.78C91.227 5.14 91.087 4.69 90.807 4.43C90.547 4.15 90.097 4.01 89.457 4.01H87.327C86.687 4.01 86.237 4.15 85.977 4.43C85.717 4.69 85.587 5.14 85.587 5.78V14.93C85.587 15.57 85.717 16.03 85.977 16.31C86.237 16.57 86.687 16.7 87.327 16.7ZM90.087 20H86.727C85.147 20 83.927 19.58 83.067 18.74C82.207 17.9 81.777 16.69 81.777 15.11V5.6C81.777 4.02 82.207 2.81 83.067 1.97C83.927 1.13 85.147 0.71 86.727 0.71H90.087C91.667 0.71 92.887 1.13 93.747 1.97C94.607 2.81 95.037 4.02 95.037 5.6V15.11C95.037 16.69 94.607 17.9 93.747 18.74C92.887 19.58 91.667 20 90.087 20Z" fill="#121212"/>
<path d="M101.66 15.68V19.37C101.66 19.79 101.47 20 101.09 20H98.4197C98.0197 20 97.8197 19.79 97.8197 19.37V15.71C97.8197 15.31 98.0197 15.11 98.4197 15.11H101.09C101.47 15.11 101.66 15.3 101.66 15.68Z" fill="#D70006"/>
</svg>
