<svg width="22" height="22" viewBox="0 0 22 22" fill="none" xmlns="http://www.w3.org/2000/svg">
<path d="M11.004 18C12.1036 18 13.0032 18.9 13.0032 20C13.0032 21.1 12.1036 22 11.004 22C9.90436 22 9.00469 21.1 9.00469 20C9.00469 18.9 9.90436 18 11.004 18ZM11.004 9C12.1036 9 13.0032 9.9 13.0032 11C13.0032 12.1 12.1036 13 11.004 13C9.90436 13 9.00469 12.1 9.00469 11C9.00469 9.9 9.90436 9 11.004 9ZM11.004 0C12.1036 0 13.0032 0.9 13.0032 2C13.0032 3.1 12.1036 4 11.004 4C9.90436 4 9.00469 3.1 9.00469 2C9.00469 0.9 9.90436 0 11.004 0ZM2.00721 18C3.10681 18 4.00649 18.9 4.00649 20C4.00649 21.1 3.10681 22 2.00721 22C0.907607 22 0.00793171 21.1 0.00793171 20C0.00793171 18.9 0.907607 18 2.00721 18ZM2.00721 9C3.10681 9 4.00649 9.9 4.00649 11C4.00649 12.1 3.10681 13 2.00721 13C0.907607 13 0.00793171 12.1 0.00793171 11C0.00793171 9.9 0.907607 9 2.00721 9ZM1.99928 0C3.09888 0 3.99856 0.9 3.99856 2C3.99856 3.1 3.09888 4 1.99928 4C0.899675 4 0 3.1 0 2C0 0.9 0.899675 0 1.99928 0ZM20.0007 18C21.1003 18 22 18.9 22 20C22 21.1 21.1003 22 20.0007 22C18.9011 22 18.0014 21.1 18.0014 20C18.0014 18.9 18.9011 18 20.0007 18ZM20.0007 9C21.1003 9 22 9.9 22 11C22 12.1 21.1003 13 20.0007 13C18.9011 13 18.0014 12.1 18.0014 11C18.0014 9.9 18.9011 9 20.0007 9ZM20.0007 0C21.1003 0 22 0.9 22 2C22 3.1 21.1003 4 20.0007 4C18.9011 4 18.0014 3.1 18.0014 2C18.0014 0.9 18.9011 0 20.0007 0Z" fill="white"/>
</svg>
