<svg width="70" height="70" viewBox="0 0 70 70" fill="none" xmlns="http://www.w3.org/2000/svg">
<path d="M65.6687 38.6367L41.6705 19.2227V15.2441C41.6653 11.8367 40.5472 8.52414 38.4863 5.81055L38.2744 5.53711C37.8911 5.03245 37.3958 4.62378 36.8275 4.34333C36.2593 4.06288 35.6336 3.91833 34.9999 3.92109C34.3658 3.91876 33.7397 4.06405 33.1714 4.34549C32.6031 4.62692 32.1081 5.03676 31.7255 5.54258L31.5136 5.81602C29.4537 8.53006 28.3362 11.8424 28.3308 15.2496V19.2281L4.33119 38.6367C4.22703 38.7206 4.14976 38.8331 4.10893 38.9605C4.06811 39.0878 4.06552 39.2243 4.10151 39.3531L5.36342 43.7855C5.3898 43.8786 5.43562 43.9649 5.49783 44.0389C5.56005 44.1129 5.63726 44.1729 5.72436 44.2148C5.81625 44.2584 5.9166 44.2813 6.0183 44.2818C6.10953 44.282 6.19983 44.2634 6.28354 44.2271L28.3281 34.9098V39.4023C28.3271 43.3365 28.9539 47.2457 30.1847 50.9824L31.3496 54.5193L23.9667 60.9041C23.8846 60.9757 23.8207 61.066 23.7806 61.1673C23.7404 61.2686 23.725 61.3781 23.7357 61.4865L24.1294 65.465C24.1406 65.5762 24.1788 65.6829 24.2408 65.7759C24.3028 65.8688 24.3866 65.9452 24.4849 65.9982C24.5843 66.051 24.695 66.0787 24.8076 66.0789C24.9187 66.0791 25.0281 66.0519 25.1261 65.9996L33.6478 61.4879L34.0347 62.6664C34.1014 62.8698 34.2307 63.0469 34.404 63.1725C34.5773 63.2981 34.7859 63.3657 34.9999 63.3657C35.214 63.3657 35.4226 63.2981 35.5959 63.1725C35.7692 63.0469 35.8985 62.8698 35.9652 62.6664L36.3535 61.4879L44.8738 65.9996C44.9718 66.0519 45.0812 66.0791 45.1923 66.0789C45.3048 66.0787 45.4156 66.051 45.515 65.9982C45.6133 65.9452 45.6971 65.8688 45.7591 65.7759C45.821 65.6829 45.8593 65.5762 45.8705 65.465L46.2656 61.4865C46.2761 61.3779 46.2605 61.2684 46.2201 61.1671C46.1796 61.0658 46.1156 60.9756 46.0331 60.9041L38.6503 54.518L39.8152 50.9824C41.0462 47.2457 41.6734 43.3366 41.6732 39.4023V34.9098L63.7109 44.2271C63.7946 44.2634 63.8849 44.282 63.9761 44.2818C64.0779 44.2817 64.1783 44.2588 64.2701 44.2148C64.3572 44.1729 64.4344 44.1129 64.4966 44.0389C64.5588 43.9649 64.6046 43.8786 64.631 43.7855L65.8984 39.3531C65.9344 39.2243 65.9318 39.0878 65.891 38.9605C65.8501 38.8331 65.7729 38.7206 65.6687 38.6367ZM6.46947 42.6713L5.54252 39.4133L28.3335 20.9809V33.4305L6.46947 42.6713ZM25.3859 64.3193L25.1261 61.7039L31.8144 55.918L33.2144 60.1727L25.3859 64.3193ZM44.8738 61.7039L44.614 64.3193L36.7855 60.1768L38.1869 55.918L44.8738 61.7039ZM38.5177 50.5559L37.2107 54.5207L34.9999 61.2391L32.7906 54.5289L31.4835 50.5641C30.2979 46.965 29.6942 43.1998 29.6953 39.4105V15.2482C29.7008 12.1415 30.7204 9.12156 32.5992 6.64727L32.8111 6.37383C33.0668 6.03599 33.3975 5.76219 33.7771 5.57404C34.1567 5.38589 34.5749 5.28853 34.9986 5.28965C35.4223 5.28853 35.8404 5.38589 36.22 5.57404C36.5997 5.76219 36.9304 6.03599 37.1861 6.37383L37.3994 6.64727C39.2786 9.12139 40.2987 12.1414 40.3046 15.2482V33.8789V39.4023C40.3059 43.1916 39.7027 46.9567 38.5177 50.5559ZM63.5373 42.6713L41.6705 33.4305V20.9809L64.4601 39.4133L63.5373 42.6713Z" fill="#D70006"/>
<path d="M32.7578 41.8236C32.5765 41.8236 32.4026 41.8957 32.2744 42.0239C32.1462 42.1521 32.0742 42.3259 32.0742 42.5072V45.9156C32.0742 46.0969 32.1462 46.2708 32.2744 46.399C32.4026 46.5272 32.5765 46.5992 32.7578 46.5992C32.9391 46.5992 33.113 46.5272 33.2412 46.399C33.3694 46.2708 33.4414 46.0969 33.4414 45.9156V42.5045C33.4407 42.3237 33.3683 42.1505 33.2402 42.0229C33.1121 41.8953 32.9386 41.8236 32.7578 41.8236Z" fill="#D70006"/>
<path d="M32.7578 21.3746C32.5765 21.3746 32.4026 21.4466 32.2744 21.5748C32.1462 21.703 32.0742 21.8769 32.0742 22.0582V25.4666C32.0742 25.6479 32.1462 25.8218 32.2744 25.95C32.4026 26.0782 32.5765 26.1502 32.7578 26.1502C32.9391 26.1502 33.113 26.0782 33.2412 25.95C33.3694 25.8218 33.4414 25.6479 33.4414 25.4666V22.0555C33.4407 21.8746 33.3683 21.7015 33.2402 21.5739C33.1121 21.4463 32.9386 21.3746 32.7578 21.3746Z" fill="#D70006"/>
<path d="M32.7578 35.0068C32.5765 35.0068 32.4026 35.0789 32.2744 35.2071C32.1462 35.3353 32.0742 35.5091 32.0742 35.6904V39.1016C32.0742 39.2829 32.1462 39.4567 32.2744 39.5849C32.4026 39.7131 32.5765 39.7852 32.7578 39.7852C32.9391 39.7852 33.113 39.7131 33.2412 39.5849C33.3694 39.4567 33.4414 39.2829 33.4414 39.1016V35.6836C33.4396 35.5035 33.3668 35.3314 33.2388 35.2046C33.1108 35.0779 32.9379 35.0068 32.7578 35.0068Z" fill="#D70006"/>
<path d="M32.7578 14.5578C32.5765 14.5578 32.4026 14.6298 32.2744 14.758C32.1462 14.8862 32.0742 15.0601 32.0742 15.2414V18.6498C32.0742 18.8311 32.1462 19.005 32.2744 19.1332C32.4026 19.2614 32.5765 19.3334 32.7578 19.3334C32.9391 19.3334 33.113 19.2614 33.2412 19.1332C33.3694 19.005 33.4414 18.8311 33.4414 18.6498V15.2387C33.4407 15.0578 33.3683 14.8847 33.2402 14.7571C33.1121 14.6295 32.9386 14.5578 32.7578 14.5578Z" fill="#D70006"/>
<path d="M32.7578 28.19C32.5765 28.19 32.4026 28.2621 32.2744 28.3903C32.1462 28.5185 32.0742 28.6923 32.0742 28.8736V32.282C32.0742 32.4633 32.1462 32.6372 32.2744 32.7654C32.4026 32.8936 32.5765 32.9656 32.7578 32.9656C32.9391 32.9656 33.113 32.8936 33.2412 32.7654C33.3694 32.6372 33.4414 32.4633 33.4414 32.282V28.8723C33.441 28.6912 33.3689 28.5177 33.2407 28.3898C33.1125 28.2619 32.9389 28.19 32.7578 28.19Z" fill="#D70006"/>
</svg>
