<svg width="70" height="70" viewBox="0 0 70 70" fill="none" xmlns="http://www.w3.org/2000/svg">
<path d="M14.4731 54.7148C14.3804 54.7148 14.2887 54.7331 14.2031 54.7685C14.1175 54.804 14.0397 54.856 13.9742 54.9215C13.9087 54.987 13.8567 55.0647 13.8213 55.1503C13.7858 55.2359 13.7676 55.3277 13.7676 55.4203V66.3578C13.7634 66.453 13.7785 66.548 13.8121 66.6372C13.8456 66.7263 13.8968 66.8078 13.9627 66.8766C14.0285 66.9454 14.1076 67.0002 14.1952 67.0376C14.2828 67.075 14.3771 67.0943 14.4724 67.0943C14.5676 67.0943 14.6619 67.075 14.7495 67.0376C14.8371 67.0002 14.9162 66.9454 14.9821 66.8766C15.0479 66.8078 15.0992 66.7263 15.1327 66.6372C15.1662 66.548 15.1814 66.453 15.1772 66.3578V55.4203C15.1773 55.3277 15.1593 55.236 15.124 55.1504C15.0887 55.0649 15.0368 54.9871 14.9714 54.9216C14.906 54.856 14.8283 54.804 14.7428 54.7686C14.6573 54.7331 14.5656 54.7148 14.4731 54.7148Z" fill="#D70006"/>
<path d="M57.4519 21.2064C59.3925 20.3481 60.9913 18.867 61.9952 16.9976C62.9992 15.1282 63.3508 12.9773 62.9945 10.8855C62.9952 10.876 62.9952 10.8664 62.9945 10.8568C62.6201 8.68707 61.5071 6.71343 59.8442 5.27022C58.1813 3.82701 56.0706 3.00296 53.8698 2.93764C51.6689 2.87233 49.5131 3.56976 47.7675 4.91181C46.0219 6.25385 44.7939 8.15801 44.2914 10.3018H38.9894C38.8943 10.2976 38.7992 10.3127 38.7101 10.3462C38.6209 10.3797 38.5395 10.431 38.4707 10.4968C38.4018 10.5627 38.3471 10.6418 38.3096 10.7294C38.2722 10.817 38.2529 10.9113 38.2529 11.0065C38.2529 11.1018 38.2722 11.1961 38.3096 11.2837C38.3471 11.3713 38.4018 11.4504 38.4707 11.5162C38.5395 11.5821 38.6209 11.6333 38.7101 11.6669C38.7992 11.7004 38.8943 11.7155 38.9894 11.7113H44.0658C44.0467 11.9656 44.033 12.2213 44.033 12.4797C44.0342 14.207 44.5035 15.9016 45.3912 17.3834C46.2788 18.8652 47.5515 20.0787 49.0738 20.8947C47.3693 21.2662 45.7676 22.0087 44.3826 23.0695C42.9976 24.1302 41.8635 25.4832 41.0607 27.032H24.459C23.2355 26.0755 21.8246 25.3871 20.3178 25.0113C22.2072 24.0219 23.706 22.422 24.5702 20.4721C25.4344 18.5223 25.6131 16.3373 25.0772 14.2729C24.5412 12.2085 23.3223 10.3864 21.6187 9.10312C19.9151 7.81987 17.8273 7.15111 15.6952 7.20572C13.5631 7.26032 11.5123 8.03509 9.87666 9.40386C8.24102 10.7726 7.11691 12.6548 6.68735 14.7439C6.25779 16.833 6.54809 19.006 7.51098 20.9091C8.47387 22.8121 10.0526 24.3332 11.9902 25.2246C9.76088 25.9512 7.81822 27.3639 6.43976 29.2606C5.0613 31.1574 4.31758 33.4414 4.31483 35.7861V66.3633C4.31064 66.4584 4.32576 66.5535 4.35929 66.6426C4.39282 66.7318 4.44406 66.8132 4.50992 66.8821C4.57577 66.9509 4.65489 67.0057 4.74249 67.0431C4.83009 67.0805 4.92436 67.0998 5.01962 67.0998C5.11487 67.0998 5.20915 67.0805 5.29675 67.0431C5.38435 67.0057 5.46346 66.9509 5.52932 66.8821C5.59518 66.8132 5.64641 66.7318 5.67994 66.6426C5.71347 66.5535 5.72859 66.4584 5.7244 66.3633V35.7861C5.72802 33.2162 6.75063 30.7525 8.568 28.9354C10.3854 27.1183 12.8492 26.096 15.4191 26.0928H17.6367C20.2069 26.0957 22.6711 27.1178 24.4887 28.9349C26.3064 30.7521 27.3292 33.2159 27.3328 35.7861V43.5395C27.3326 43.632 27.3507 43.7236 27.386 43.8091C27.4214 43.8946 27.4732 43.9723 27.5386 44.0377C27.604 44.1031 27.6817 44.155 27.7672 44.1903C27.8527 44.2256 27.9444 44.2437 28.0369 44.2436H36.2646C37.0352 44.2446 37.7739 44.5512 38.3187 45.0961C38.8636 45.641 39.1702 46.3796 39.1713 47.1502V47.2227C39.1702 47.9932 38.8636 48.7319 38.3187 49.2768C37.7739 49.8216 37.0352 50.1282 36.2646 50.1293H25.5049C24.4218 50.1282 23.3833 49.6975 22.6174 48.9316C21.8515 48.1657 21.4208 47.1273 21.4197 46.0441V36.0637C21.4239 35.9685 21.4088 35.8735 21.3753 35.7843C21.3417 35.6952 21.2905 35.6137 21.2246 35.5449C21.1588 35.4761 21.0797 35.4213 20.9921 35.3839C20.9045 35.3464 20.8102 35.3272 20.7149 35.3272C20.6197 35.3272 20.5254 35.3464 20.4378 35.3839C20.3502 35.4213 20.2711 35.4761 20.2052 35.5449C20.1394 35.6137 20.0881 35.6952 20.0546 35.7843C20.0211 35.8735 20.006 35.9685 20.0101 36.0637V46.0441C20.0111 47.0614 20.2942 48.0584 20.8278 48.9244C21.3614 49.7904 22.1248 50.4914 23.033 50.9496V66.3633C23.0288 66.4584 23.0439 66.5535 23.0775 66.6426C23.111 66.7318 23.1622 66.8132 23.2281 66.8821C23.2939 66.9509 23.3731 67.0057 23.4607 67.0431C23.5483 67.0805 23.6425 67.0998 23.7378 67.0998C23.833 67.0998 23.9273 67.0805 24.0149 67.0431C24.1025 67.0057 24.1816 66.9509 24.2475 66.8821C24.3133 66.8132 24.3646 66.7318 24.3981 66.6426C24.4316 66.5535 24.4468 66.4584 24.4426 66.3633V51.435C24.7924 51.5043 25.1482 51.5391 25.5049 51.5389H36.2646C36.8399 51.5391 37.4093 51.4241 37.9393 51.2005C38.4693 50.977 38.9491 50.6495 39.3504 50.2373H43.5887V66.3701C43.5845 66.4653 43.5996 66.5603 43.6331 66.6495C43.6667 66.7386 43.7179 66.8201 43.7837 66.8889C43.8496 66.9577 43.9287 67.0125 44.0163 67.0499C44.1039 67.0873 44.1982 67.1066 44.2934 67.1066C44.3887 67.1066 44.483 67.0873 44.5706 67.0499C44.6582 67.0125 44.7373 66.9577 44.8031 66.8889C44.869 66.8201 44.9202 66.7386 44.9538 66.6495C44.9873 66.5603 45.0024 66.4653 44.9982 66.3701V50.2373H56.875C58.4995 50.2394 60.0925 49.7892 61.4756 48.9371V66.3633C61.4756 66.5504 61.5499 66.7298 61.6822 66.8621C61.8145 66.9944 61.9939 67.0687 62.181 67.0687C62.3681 67.0687 62.5476 66.9944 62.6799 66.8621C62.8122 66.7298 62.8865 66.5504 62.8865 66.3633V47.8598C63.77 47.0371 64.4745 46.0413 64.956 44.9343C65.4375 43.8273 65.6857 42.633 65.6851 41.4258V32.5514C65.6822 30.0343 64.8847 27.5824 63.4063 25.5452C61.9279 23.508 59.8441 21.9896 57.4519 21.2064ZM15.9373 24.6818C14.3483 24.6818 12.7951 24.2106 11.4739 23.3278C10.1528 22.445 9.12309 21.1903 8.51509 19.7222C7.90709 18.2542 7.74807 16.6389 8.05816 15.0805C8.36825 13.5221 9.13351 12.0906 10.2572 10.9672C11.3808 9.84369 12.8124 9.07867 14.3709 8.76885C15.9293 8.45902 17.5446 8.61831 19.0126 9.22656C20.4805 9.83482 21.7351 10.8647 22.6176 12.186C23.5002 13.5073 23.9712 15.0607 23.9709 16.6496C23.9687 18.7795 23.1216 20.8214 21.6154 22.3273C20.1093 23.8332 18.0671 24.68 15.9373 24.6818ZM53.5814 4.34082C55.3596 4.34335 57.0882 4.9272 58.5038 6.00337C59.9193 7.07954 60.9442 8.58902 61.4223 10.3018H45.7406C46.2188 8.58914 47.2438 7.07979 48.6593 6.00365C50.0748 4.92751 51.8033 4.34358 53.5814 4.34082ZM45.4426 12.4797C45.4426 12.2199 45.4562 11.9643 45.4795 11.7113H61.6834C61.7066 11.9643 61.7203 12.2199 61.7203 12.4797C61.7203 13.5485 61.5098 14.6068 61.1008 15.5943C60.6917 16.5817 60.0922 17.479 59.3365 18.2347C58.5807 18.9905 57.6835 19.59 56.696 19.999C55.7086 20.408 54.6502 20.6186 53.5814 20.6186C52.5126 20.6186 51.4543 20.408 50.4668 19.999C49.4794 19.59 48.5821 18.9905 47.8264 18.2347C47.0706 17.479 46.4711 16.5817 46.0621 15.5943C45.6531 14.6068 45.4426 13.5485 45.4426 12.4797ZM36.7951 28.4375H41.1838V35.9926H36.7951V28.4375ZM45.4494 48.8236H40.2678C40.4731 48.3134 40.5785 47.7685 40.5781 47.2186V47.1461C40.577 46.0017 40.1219 44.9045 39.3127 44.0953C38.5035 43.2861 37.4063 42.831 36.2619 42.8299H28.7424V35.7861C28.7447 33.0781 27.7532 30.4633 25.956 28.4375H35.3896V36.698C35.3896 36.8852 35.464 37.0646 35.5963 37.1969C35.7286 37.3292 35.908 37.4035 36.0951 37.4035H41.892C42.0791 37.4035 42.2585 37.3292 42.3908 37.1969C42.5231 37.0646 42.5975 36.8852 42.5975 36.698V28.4375H51.7016V41.5625H48.6322C47.4908 41.5639 46.3966 42.018 45.5895 42.8251C44.7824 43.6322 44.3284 44.7264 44.3269 45.8678V45.9375C44.3273 47.0072 44.7277 48.0382 45.4494 48.8277V48.8236ZM64.2756 41.4258C64.273 43.3879 63.4926 45.2689 62.1053 46.6565C60.718 48.044 58.8371 48.8248 56.875 48.8277H48.6322C47.8655 48.827 47.1304 48.5224 46.5879 47.9807C46.0453 47.4389 45.7397 46.7042 45.7379 45.9375V45.865C45.7386 45.0976 46.0438 44.3619 46.5864 43.8192C47.129 43.2766 47.8648 42.9714 48.6322 42.9707H56.6275C56.8146 42.9707 56.9941 42.8964 57.1264 42.7641C57.2587 42.6318 57.333 42.4523 57.333 42.2652V32.8699C57.333 32.6828 57.2587 32.5034 57.1264 32.3711C56.9941 32.2388 56.8146 32.1645 56.6275 32.1645C56.4404 32.1645 56.261 32.2388 56.1287 32.3711C55.9964 32.5034 55.9221 32.6828 55.9221 32.8699V41.5625H53.107V27.7375C53.1072 27.6449 53.0891 27.5532 53.0538 27.4676C53.0185 27.382 52.9667 27.3043 52.9013 27.2387C52.8359 27.1732 52.7582 27.1212 52.6727 27.0858C52.5872 27.0503 52.4955 27.032 52.4029 27.032H42.6808C43.6192 25.499 44.9366 24.2334 46.506 23.3573C48.0754 22.4811 49.844 22.0238 51.6414 22.0295H53.7537C56.5457 22.0295 59.2234 23.1386 61.1977 25.1129C63.1719 27.0871 64.281 29.7648 64.281 32.5568L64.2756 41.4258Z" fill="#D70006"/>
<path d="M53.2383 54.7148C53.1456 54.7147 53.0537 54.7328 52.9681 54.7682C52.8824 54.8036 52.8046 54.8555 52.739 54.9211C52.6735 54.9866 52.6215 55.0645 52.5861 55.1501C52.5507 55.2358 52.5326 55.3276 52.5328 55.4203V66.3578C52.5286 66.453 52.5437 66.548 52.5772 66.6372C52.6108 66.7263 52.662 66.8078 52.7279 66.8766C52.7937 66.9454 52.8728 67.0002 52.9604 67.0376C53.048 67.075 53.1423 67.0943 53.2376 67.0943C53.3328 67.0943 53.4271 67.075 53.5147 67.0376C53.6023 67.0002 53.6814 66.9454 53.7473 66.8766C53.8131 66.8078 53.8644 66.7263 53.8979 66.6372C53.9314 66.548 53.9466 66.453 53.9424 66.3578V55.4203C53.9425 55.3277 53.9245 55.236 53.8892 55.1504C53.8539 55.0649 53.802 54.9871 53.7366 54.9216C53.6712 54.856 53.5935 54.804 53.508 54.7686C53.4225 54.7331 53.3308 54.7148 53.2383 54.7148Z" fill="#D70006"/>
</svg>
