<svg width="70" height="70" viewBox="0 0 70 70" fill="none" xmlns="http://www.w3.org/2000/svg">
<path d="M65.2955 64.0268H61.1269V35.0424C61.1268 34.9228 61.0953 34.8052 61.0356 34.7016C60.9759 34.598 60.89 34.5118 60.7865 34.4518L35.3418 19.7299C35.2379 19.6699 35.12 19.6383 35 19.6383C34.88 19.6383 34.7621 19.6699 34.6582 19.7299L9.21208 34.4531C9.10888 34.5134 9.02326 34.5996 8.96377 34.7032C8.90428 34.8068 8.87299 34.9243 8.87302 35.0438V64.0281H4.70447C4.52317 64.0281 4.34929 64.1001 4.22109 64.2283C4.0929 64.3565 4.02087 64.5304 4.02087 64.7117C4.02087 64.893 4.0929 65.0669 4.22109 65.1951C4.34929 65.3233 4.52317 65.3953 4.70447 65.3953H65.2955C65.4768 65.3953 65.6507 65.3233 65.7789 65.1951C65.9071 65.0669 65.9791 64.893 65.9791 64.7117C65.9791 64.5304 65.9071 64.3565 65.7789 64.2283C65.6507 64.1001 65.4768 64.0281 65.2955 64.0281V64.0268ZM10.2361 35.4334L35 21.108L59.7638 35.4334V64.0268H55.0799V36.9797C55.0799 36.7984 55.0078 36.6245 54.8796 36.4963C54.7514 36.3681 54.5776 36.2961 54.3963 36.2961H15.6023C15.421 36.2961 15.2471 36.3681 15.1189 36.4963C14.9907 36.6245 14.9187 36.7984 14.9187 36.9797V64.0268H10.2361V35.4334ZM38.3277 53.5295H33.3279V43.7131C33.3279 43.5318 33.2559 43.3579 33.1277 43.2297C32.9995 43.1015 32.8256 43.0295 32.6443 43.0295H21.283C21.1017 43.0295 20.9278 43.1015 20.7996 43.2297C20.6714 43.3579 20.5994 43.5318 20.5994 43.7131V53.5295H16.2832V37.6619H53.7168V64.0268H39.0099V54.2104C39.0092 54.0298 38.9371 53.8568 38.8092 53.7292C38.6814 53.6017 38.5083 53.5299 38.3277 53.5295ZM26.965 53.5295H21.9652V44.3939H26.2828V46.7072C26.2828 46.8885 26.3548 47.0624 26.483 47.1906C26.6112 47.3188 26.7851 47.3908 26.9664 47.3908C27.1477 47.3908 27.3216 47.3188 27.4498 47.1906C27.578 47.0624 27.65 46.8885 27.65 46.7072V44.3939H31.9648V53.5295H26.965ZM16.2832 54.8967H20.6021V57.21C20.6021 57.3913 20.6741 57.5651 20.8023 57.6933C20.9305 57.8215 21.1044 57.8936 21.2857 57.8936C21.467 57.8936 21.6409 57.8215 21.7691 57.6933C21.8973 57.5651 21.9693 57.3913 21.9693 57.21V54.8926H26.2869V64.0268H16.2832V54.8967ZM27.6459 64.0309V54.8926H31.9648V57.2059C31.9648 57.3872 32.0368 57.561 32.165 57.6892C32.2932 57.8174 32.4671 57.8895 32.6484 57.8895C32.8297 57.8895 33.0036 57.8174 33.1318 57.6892C33.26 57.561 33.332 57.3872 33.332 57.2059V54.8926H37.651V64.0268L27.6459 64.0309Z" fill="#D70006"/>
<path d="M65.625 10.098L56.0547 4.69902C55.9525 4.6405 55.8368 4.60972 55.719 4.60972C55.6013 4.60972 55.4856 4.6405 55.3834 4.69902L45.8131 10.098C45.708 10.1575 45.6204 10.2437 45.5594 10.3479C45.4984 10.4521 45.4661 10.5706 45.4658 10.6914V20.3205C45.4658 20.5018 45.5378 20.6757 45.666 20.8039C45.7942 20.9321 45.9681 21.0041 46.1494 21.0041C46.3307 21.0041 46.5046 20.9321 46.6328 20.8039C46.761 20.6757 46.833 20.5018 46.833 20.3205V11.0893L55.7197 6.07441L64.6064 11.0893V20.3205C64.6064 20.5018 64.6785 20.6757 64.8067 20.8039C64.9349 20.9321 65.1087 21.0041 65.29 21.0041C65.4713 21.0041 65.6452 20.9321 65.7734 20.8039C65.9016 20.6757 65.9736 20.5018 65.9736 20.3205V10.6914C65.9732 10.5705 65.9407 10.4519 65.8794 10.3477C65.8182 10.2434 65.7304 10.1573 65.625 10.098Z" fill="#D70006"/>
<path d="M60.8754 21.0027C61.0567 21.0027 61.2306 20.9307 61.3588 20.8025C61.487 20.6743 61.559 20.5004 61.559 20.3191V13.4572C61.559 13.2759 61.487 13.1021 61.3588 12.9739C61.2306 12.8457 61.0567 12.7736 60.8754 12.7736H50.5859C50.4046 12.7736 50.2308 12.8457 50.1026 12.9739C49.9744 13.1021 49.9023 13.2759 49.9023 13.4572V20.3205C49.9023 20.5018 49.9744 20.6757 50.1026 20.8039C50.2308 20.9321 50.4046 21.0041 50.5859 21.0041C50.7672 21.0041 50.9411 20.9321 51.0693 20.8039C51.1975 20.6757 51.2695 20.5018 51.2695 20.3205V14.1395H60.1959V20.3205C60.1963 20.5009 60.2679 20.6738 60.3951 20.8016C60.5224 20.9293 60.695 21.0017 60.8754 21.0027Z" fill="#D70006"/>
</svg>
